<?xml version="1.0" encoding="UTF-8" standalone="no"?>
<!-- Created with Inkscape (http://www.inkscape.org/) -->
<svg
   xmlns:dc="http://purl.org/dc/elements/1.1/"
   xmlns:cc="http://creativecommons.org/ns#"
   xmlns:rdf="http://www.w3.org/1999/02/22-rdf-syntax-ns#"
   xmlns:svg="http://www.w3.org/2000/svg"
   xmlns="http://www.w3.org/2000/svg"
   xmlns:sodipodi="http://sodipodi.sourceforge.net/DTD/sodipodi-0.dtd"
   xmlns:inkscape="http://www.inkscape.org/namespaces/inkscape"
   width="250"
   height="250"
   id="svg2"
   sodipodi:version="0.32"
   inkscape:version="0.46"
   version="1.0"
   sodipodi:docname="all_tv.svg"
   inkscape:output_extension="org.inkscape.output.svg.inkscape">
  <defs
     id="defs4">
    <inkscape:perspective
       sodipodi:type="inkscape:persp3d"
       inkscape:vp_x="0 : 526.18109 : 1"
       inkscape:vp_y="0 : 1000 : 0"
       inkscape:vp_z="744.09448 : 526.18109 : 1"
       inkscape:persp3d-origin="372.04724 : 350.78739 : 1"
       id="perspective10" />
    <inkscape:perspective
       id="perspective2392"
       inkscape:persp3d-origin="372.04724 : 350.78739 : 1"
       inkscape:vp_z="744.09448 : 526.18109 : 1"
       inkscape:vp_y="0 : 1000 : 0"
       inkscape:vp_x="0 : 526.18109 : 1"
       sodipodi:type="inkscape:persp3d" />
  </defs>
  <sodipodi:namedview
     id="base"
     pagecolor="#ffffff"
     bordercolor="#666666"
     borderopacity="1.0"
     gridtolerance="10000"
     guidetolerance="10"
     objecttolerance="10"
     inkscape:pageopacity="0.0"
     inkscape:pageshadow="2"
     inkscape:zoom="0.98994949"
     inkscape:cx="-45.185968"
     inkscape:cy="162.05953"
     inkscape:document-units="px"
     inkscape:current-layer="layer1"
     showgrid="false"
     inkscape:window-width="1160"
     inkscape:window-height="849"
     inkscape:window-x="46"
     inkscape:window-y="46" />
  <metadata
     id="metadata7">
    <rdf:RDF>
      <cc:Work
         rdf:about="">
        <dc:format>image/svg+xml</dc:format>
        <dc:type
           rdf:resource="http://purl.org/dc/dcmitype/StillImage" />
      </cc:Work>
    </rdf:RDF>
  </metadata>
  <g
     inkscape:label="Layer 1"
     inkscape:groupmode="layer"
     id="layer1">
    <path
       style="fill:#ffcb00;fill-opacity:1;stroke:#ffffff;stroke-width:6;stroke-opacity:1"
       d="M 110.36932,241.7032 C 83.23829,238.30734 59.680442,226.34158 40.156435,206.0399 C 18.377405,183.39338 7.9576554,157.41142 7.9576554,125.75124 C 7.9576554,92.372639 19.967145,64.474192 44.340228,41.233297 C 66.796639,19.820038 92.851491,9.4601312 124.24876,9.4601312 C 155.64603,9.4601312 181.70088,19.820038 204.1573,41.233297 C 228.53038,64.474192 240.53986,92.372639 240.53986,125.75124 C 240.53986,159.12984 228.53038,187.02828 204.1573,210.26918 C 187.72766,225.93562 169.28399,235.56471 146.81718,240.20536 C 137.442,242.14185 119.69936,242.871 110.36932,241.7032 z"
       id="path2398" />
    <path
       transform="translate(-122.35865,-10.444225)"
       style="font-size:150px;font-style:normal;font-variant:normal;font-weight:bold;font-stretch:normal;text-align:start;line-height:100%;writing-mode:lr-tb;text-anchor:start;fill:#000000;fill-opacity:1;stroke:none;stroke-width:1px;stroke-linecap:butt;stroke-linejoin:miter;stroke-opacity:1;font-family:UnDotum;-inkscape-font-specification:UnDotum Bold"
       d="M 209.28088,181.16907 L 226.92188,181.16907 L 200.88123,99.688965 C 199.85579,96.422023 198.33978,94.508675 196.33319,93.948914 C 194.32652,93.389291 193.22921,93.109445 193.04126,93.109375 L 181.28345,93.109375 C 181.18942,93.109445 180.02233,93.389291 177.78217,93.948914 C 175.54195,94.508675 173.90916,96.46902 172.88379,99.829956 L 146.42444,181.16907 L 164.06116,181.16907 L 170.22205,160.87061 L 203.12427,160.87061 L 209.28088,181.16907 z M 174.70386,146.31006 L 185.34229,110.75037 L 188.00403,110.75037 L 198.78345,146.31006 L 174.70386,146.31006 z M 247.89111,165.07043 L 247.89111,93.109375 L 230.80981,93.109375 L 230.80981,171.23132 C 230.80981,174.21634 231.65006,176.61888 233.33057,178.43896 C 235.01106,180.25902 237.25125,181.16905 240.05115,181.16907 L 284.85217,181.16907 L 284.85217,165.07043 L 247.89111,165.07043 z M 312.6958,165.07043 L 312.6958,93.109375 L 295.6145,93.109375 L 295.6145,171.23132 C 295.61449,174.21634 296.45474,176.61888 298.13525,178.43896 C 299.81574,180.25902 302.05593,181.16905 304.85583,181.16907 L 349.65686,181.16907 L 349.65686,165.07043 L 312.6958,165.07043 z"
       id="flowRoot3264" />
  </g>
</svg>
